PathFileType	4	(X/Y/Z)	E:\3-PhD\Data\MocapData\ElaboratedData\015\pre\dynamicElaborations\RunA1\RunA1.trc
DataRate	CameraRate	NumFrames	NumMarkers	Units	OrigDataRate	DataStartFrame
200	200	4	61	mm	200	363
Frame#	Time	FHD			LBHD			RBHD			C7			T10			CLAV			LSHO			LUUPA			LMUPA			LDUPA			LLEP			LMEP			LRAD			LUL			LRFIN			RSHO			RUPA1			RMUPA			RDUPA			RLEP			RMEP			RRAD			RUL			RUFIN			LASI			RASI			USACR			LSACR			RSACR			LTHI1			LTHI2			LTHI3			LTHI4			LLFC			LMFC			LTIB1			LTIB2			LTIB3			LTIB4			LLMAL			LMMAL			LHEE			LMT1			LMT5			LMT2			RTHI			RTHI2			RTHI3			RTHI4			RLFC			RMFC			RTIB1			RTIB2			RTIB3			RTIB4			RLMAL			RMMAL			RHEE			RMT1			RMT2			RMT5		
		X1	Y1	Z1	X2	Y2	Z2	X3	Y3	Z3	X4	Y4	Z4	X5	Y5	Z5	X6	Y6	Z6	X7	Y7	Z7	X8	Y8	Z8	X9	Y9	Z9	X10	Y10	Z10	X11	Y11	Z11	X12	Y12	Z12	X13	Y13	Z13	X14	Y14	Z14	X15	Y15	Z15	X16	Y16	Z16	X17	Y17	Z17	X18	Y18	Z18	X19	Y19	Z19	X20	Y20	Z20	X21	Y21	Z21	X22	Y22	Z22	X23	Y23	Z23	X24	Y24	Z24	X25	Y25	Z25	X26	Y26	Z26	X27	Y27	Z27	X28	Y28	Z28	X29	Y29	Z29	X30	Y30	Z30	X31	Y31	Z31	X32	Y32	Z32	X33	Y33	Z33	X34	Y34	Z34	X35	Y35	Z35	X36	Y36	Z36	X37	Y37	Z37	X38	Y38	Z38	X39	Y39	Z39	X40	Y40	Z40	X41	Y41	Z41	X42	Y42	Z42	X43	Y43	Z43	X44	Y44	Z44	X45	Y45	Z45	X46	Y46	Z46	X47	Y47	Z47	X48	Y48	Z48	X49	Y49	Z49	X50	Y50	Z50	X51	Y51	Z51	X52	Y52	Z52	X53	Y53	Z53	X54	Y54	Z54	X55	Y55	Z55	X56	Y56	Z56	X57	Y57	Z57	X58	Y58	Z58	X59	Y59	Z59	X60	Y60	Z60	X61	Y61	Z61	

447	2.230000	-1231.645082	1494.072638	210.820382	-1366.167810	1546.014577	203.548419	-1371.992252	1543.521714	330.652147	-1505.766185	1438.297448	278.528337	-1660.573688	1138.528246	231.995859	-1392.549884	1315.479153	240.212283	-1454.514064	1439.937948	89.076383	-1582.662514	1349.743303	-35.736401	-1584.432000	1301.228809	-38.781805	-1630.406140	1317.767160	-73.282873	-1707.908597	1288.718403	-104.534899	-1744.026063	1257.653604	-17.413141	-1710.910315	1021.649581	-130.784896	-1660.811258	1028.760496	-76.876057	-1632.375257	945.392339	-97.941758	-1427.611495	1374.651289	438.659922	-1449.667093	1192.302653	501.076787	-1419.374256	1163.004331	477.837530	-1450.330051	1121.591179	508.222825	-1440.187225	1011.604360	489.394384	-1507.163075	1007.122217	436.529988	-1273.134156	1089.314029	305.843046	-1241.512199	1018.625293	305.669793	-1192.974558	1109.023168	298.285673	-1551.132548	931.961772	119.540273	-1582.654749	939.626803	373.360958	-1714.980628	1042.446879	220.943916	-1728.154109	1012.532721	192.480855	-1730.996729	1016.141910	248.827823	-1479.735158	703.252134	57.333828	-1398.477005	676.867673	64.824960	-1364.996841	707.977458	80.840081	-1378.408335	624.100789	92.522507	-1344.137590	572.866545	114.897589	-1363.924464	581.901246	239.685137	-1429.061563	456.485821	147.502052	-1483.639342	481.379189	82.855873	-1475.206424	451.223976	111.602713	-1551.421689	416.896383	130.239285	-1690.472543	411.105465	88.690048	-1692.927323	403.581204	173.847252	-1784.875174	435.849944	121.084058	-1661.447915	268.879224	169.270155	-1682.358009	281.263791	64.350702	-1648.982419	267.649489	120.601631	-1652.014674	753.343926	430.439825	-1623.958068	695.861781	428.527109	-1591.900187	692.216650	415.226865	-1666.578817	621.270022	422.280711	-1748.604274	436.842927	375.431802	-1709.736215	427.026039	255.046860	-1818.590378	239.216472	310.356805	-1926.239296	225.172404	332.478733	-1891.451752	192.920154	321.092195	-1912.078953	154.909710	283.905432	-1999.024315	133.731430	300.076447	-1977.382951	145.534901	216.906332	-2086.857867	114.206944	231.539744	-1875.744870	52.165582	254.063810	-1889.745783	49.972824	292.338920	-1941.882386	24.627432	337.379769	
448	2.235000	-1204.476256	1496.122506	209.981946	-1338.809486	1548.387443	202.247128	-1345.312028	1545.490438	329.243383	-1478.934397	1439.749101	277.874853	-1631.090009	1138.051102	234.475279	-1365.143860	1318.352178	238.055681	-1428.616679	1443.769553	88.594108	-1559.054686	1357.629287	-35.218472	-1561.406847	1309.247127	-38.869148	-1607.943639	1326.741805	-72.116657	-1686.330984	1299.097971	-102.337631	-1720.837643	1267.609535	-14.904875	-1690.096891	1031.754523	-129.224444	-1638.781801	1038.427900	-76.901761	-1610.839498	955.082296	-98.074906	-1398.236834	1378.292568	436.257504	-1417.139791	1196.233069	499.434991	-1386.307115	1167.419248	476.293276	-1416.572585	1125.553010	506.693798	-1404.385278	1015.773150	487.531639	-1471.936395	1010.621752	434.661585	-1242.384411	1102.395794	302.376702	-1208.516782	1032.901916	300.249080	-1163.259152	1125.294430	293.895554	-1521.690959	935.503724	119.152049	-1550.492727	938.394439	373.794448	-1684.738312	1042.564616	223.589219	-1698.153599	1012.885221	194.913914	-1700.159236	1015.781276	251.337261	-1445.445184	710.911320	59.685078	-1363.183685	687.315451	67.412688	-1331.044986	719.944820	83.350515	-1341.537352	634.908382	94.743081	-1305.647088	584.263228	117.490716	-1327.041943	593.748389	241.495140	-1383.500516	461.843861	149.647833	-1439.494481	483.889998	84.966869	-1429.150776	453.999933	113.377185	-1503.024424	414.912704	131.466930	-1641.689686	400.298329	89.833091	-1644.020594	392.748641	174.748235	-1737.911600	418.568129	121.389033	-1603.378720	260.628949	170.518338	-1624.537609	271.451379	65.474018	-1590.672332	260.229028	121.997180	-1624.304425	752.299274	429.788286	-1598.926309	693.834280	427.133124	-1567.117859	688.905031	413.699105	-1644.741803	621.105182	421.074222	-1737.141735	440.264171	375.152359	-1700.495211	429.001839	253.910501	-1810.949866	242.750064	311.562072	-1918.738031	230.938752	333.980307	-1884.403571	197.938266	322.822673	-1905.685930	159.933995	286.102300	-1993.120783	139.191441	302.533620	-1971.419687	150.596938	219.504120	-2081.089006	124.133684	234.483253	-1875.308221	51.392830	254.293660	-1889.259368	49.492948	292.589212	-1941.600009	25.262560	337.493442	
449	2.240000	-1177.282609	1498.306411	208.976395	-1311.408541	1550.906716	200.796908	-1318.576946	1547.647915	327.646032	-1452.096704	1441.403898	277.109047	-1601.362683	1137.716426	237.050469	-1337.698542	1321.432690	235.845718	-1402.550262	1447.698231	88.062462	-1534.975057	1365.125994	-34.565415	-1537.952304	1316.871999	-38.728698	-1584.936686	1335.241985	-70.764880	-1664.178025	1309.111448	-99.931704	-1697.182800	1277.361358	-12.206899	-1668.256842	1041.456072	-127.365650	-1615.993099	1047.781832	-76.362445	-1588.294801	964.474750	-97.644707	-1368.963346	1382.024908	433.752331	-1384.769053	1200.496497	498.022084	-1353.575092	1172.030345	474.968456	-1383.129929	1129.872230	505.603427	-1369.374968	1020.245235	486.432898	-1437.634333	1014.399702	433.740360	-1212.838762	1114.655153	299.403355	-1176.903466	1046.395038	295.515354	-1134.901017	1140.612201	289.817089	-1492.089154	939.669478	118.861327	-1517.797757	937.437677	373.882405	-1654.260440	1042.859956	226.533259	-1667.946750	1013.354721	197.755476	-1669.124245	1015.653059	254.207688	-1411.808196	718.392948	61.841566	-1328.752248	697.202418	69.856544	-1297.909670	731.245633	85.543173	-1305.792889	645.128463	96.802420	-1268.397071	594.898453	119.822012	-1290.947747	604.569611	243.030053	-1338.717374	466.749187	151.702067	-1396.071946	485.697820	86.994865	-1383.723889	456.275922	115.129402	-1454.962836	412.569284	132.872931	-1592.678122	389.095862	91.358302	-1594.626006	381.500038	176.125892	-1690.197938	400.695322	122.292321	-1545.002194	252.604288	171.962356	-1566.514119	261.901532	66.878189	-1532.234639	253.114546	123.631779	-1596.022914	751.679462	429.072211	-1573.354758	692.371194	425.530318	-1541.849869	686.266181	411.923048	-1622.254911	621.608020	419.669930	-1724.767015	444.955885	374.754070	-1690.519676	432.483266	252.468494	-1802.246610	247.291887	312.895231	-1910.101133	237.425777	335.634219	-1876.150861	203.791647	324.743948	-1897.979542	165.628557	288.579168	-1985.838156	145.049002	305.275253	-1964.148053	155.922098	222.386131	-2073.706640	134.911787	237.816849	-1874.624481	50.649213	254.509135	-1888.467937	49.064340	292.857901	-1940.967276	26.333006	337.695553	
450	2.245000	-1150.078056	1500.601536	207.800670	-1283.994277	1553.516744	199.209825	-1291.789731	1549.961462	325.881906	-1425.216669	1443.235292	276.264595	-1571.426437	1137.533928	239.683558	-1310.216186	1324.643197	233.632054	-1376.266020	1451.616292	87.471871	-1510.432196	1372.126438	-33.828926	-1514.067977	1324.005868	-38.417516	-1561.407369	1343.179088	-69.289515	-1641.445725	1318.642261	-97.356262	-1673.068380	1286.806521	-9.351885	-1645.479582	1050.611125	-125.248642	-1592.460363	1056.672814	-75.367377	-1564.804438	973.419361	-96.770421	-1339.821497	1385.790194	431.201507	-1352.571062	1205.006940	496.838038	-1321.177702	1176.757695	473.854207	-1350.002169	1134.456881	504.931087	-1335.131965	1024.921006	486.075900	-1404.227419	1018.308383	433.768365	-1184.362474	1125.875275	296.867419	-1146.520900	1058.846080	291.453993	-1107.742012	1154.724051	285.979119	-1462.384200	944.168303	118.765704	-1484.725131	936.754027	373.670334	-1623.591370	1043.326950	229.724752	-1637.581167	1013.937568	200.953100	-1637.952424	1015.764652	257.387041	-1378.825046	725.526979	63.742764	-1295.162750	706.334403	72.102726	-1265.547230	741.673956	87.392965	-1271.154797	654.558055	98.666035	-1232.302729	604.567550	121.880140	-1255.556434	614.162802	244.264504	-1294.731367	471.085677	153.662145	-1353.291963	486.676362	88.915001	-1338.904621	457.957785	116.842558	-1407.266980	409.829276	134.442344	-1543.491244	377.550098	93.244116	-1544.861894	369.903571	177.900589	-1641.758497	382.374227	123.805337	-1486.478910	244.873814	173.586331	-1508.471831	252.668122	68.549316	-1473.839207	246.339807	125.468856	-1567.215101	751.492404	428.314926	-1547.246718	691.480059	423.737992	-1516.090548	684.322077	409.916677	-1599.073760	622.755303	418.073379	-1711.301544	450.850324	374.191028	-1679.469085	437.389822	250.780101	-1792.275867	252.838192	314.298430	-1900.121735	244.570018	337.455877	-1866.495688	210.415672	326.837595	-1888.784093	171.941891	291.313971	-1977.003772	151.289406	308.295944	-1955.426138	161.515217	225.548134	-2064.522392	146.536843	241.559219	-1873.577945	50.035355	254.716408	-1887.246211	48.779696	293.161030	-1939.843682	27.987386	338.007882	
